# xmcd
#
# Track frame offsets:
#	150
#	26425
#	47185
#	63997
#	75100
#	85315
#	100520
#	119995
#	134302
#	160165
#
# Disc length: 2253 seconds
#
# Revision: 8
# Processed by: cddbd v1.5.2PL0 Copyright (c) Steve Scherf et al.
# Submitted via: EasyCDDAExtractor 5.1.0
#
DISCID=7708cb0a
DTITLE=Ten years after - A space in time
DYEAR=1971
DGENRE=Blues
TTITLE0=One of these days
TTITLE1=Here they come
TTITLE2=I'd love to change the world
TTITLE3=Over the hill
TTITLE4=Baby won't you let me rock 'n' roll you
TTITLE5=Once there was a time
TTITLE6=Let the sky fall
TTITLE7=Hard monkeys
TTITLE8=I've been there too
TTITLE9=Uncle Jam
EXTD=YEAR: 1971
EXTT0=
EXTT1=
EXTT2=
EXTT3=
EXTT4=
EXTT5=
EXTT6=
EXTT7=
EXTT8=
EXTT9=
PLAYORDER=
